<?xml version="1.0" standalone="no"?>
<!DOCTYPE svg PUBLIC "-//W3C//DTD SVG 20010904//EN"
 "http://www.w3.org/TR/2001/REC-SVG-20010904/DTD/svg10.dtd">
<svg version="1.0" xmlns="http://www.w3.org/2000/svg"
 width="2306.000000pt" height="1490.000000pt" viewBox="0 0 2306.000000 1490.000000"
 preserveAspectRatio="xMidYMid meet">

<g transform="translate(0.000000,1490.000000) scale(0.100000,-0.100000)"
fill="#000000" stroke="none">
<path d="M9570 14649 c-2456 -121 -4678 -1485 -5912 -3629 -796 -1383 -1106
-3005 -882 -4615 38 -272 119 -665 185 -900 l11 -40 26 50 c14 28 488 995
1054 2150 l1028 2100 855 3 c470 1 855 0 855 -3 0 -3 -662 -1399 -1471 -3103
-809 -1703 -1473 -3104 -1476 -3113 -5 -18 132 -226 275 -418 73 -99 86 -112
97 -98 6 9 752 1528 1656 3376 l1644 3361 857 0 858 0 -36 -72 c-19 -40 -873
-1839 -1898 -3998 -1340 -2822 -1861 -3929 -1854 -3938 13 -15 247 -191 353
-264 l80 -56 2036 4162 2037 4161 857 3 c685 2 856 0 852 -10 -3 -7 -971
-2047 -2152 -4533 -1181 -2486 -2149 -4527 -2152 -4536 -6 -20 23 -32 317
-129 341 -114 721 -208 1075 -266 131 -21 161 -23 168 -12 5 7 1225 2499 2712
5538 l2704 5525 -3509 3 -3510 2 2 758 3 757 3689 5 3689 5 -124 104 c-1397
1166 -3174 1760 -4999 1670z"/>
<path d="M17660 9333 c-118 -241 -330 -674 -473 -963 -409 -828 -3749 -7657
-3883 -7937 l-53 -113 927 0 927 0 2230 4697 c1227 2583 2235 4709 2242 4725
l12 28 -858 0 -857 0 -214 -437z"/>
<path d="M17857 5228 c-157 -430 -139 -742 55 -963 136 -155 263 -232 637
-385 447 -182 782 -335 1766 -802 352 -168 688 -327 747 -354 59 -27 104 -52
100 -55 -4 -3 -83 -34 -177 -69 -93 -34 -435 -164 -760 -287 -960 -366 -1330
-498 -1910 -682 -104 -33 -228 -79 -275 -101 -446 -217 -543 -545 -333 -1137
l25 -71 97 35 c53 19 551 198 1106 398 1748 628 2898 1052 3159 1165 239 103
436 355 492 629 22 113 15 288 -16 381 -32 97 -91 189 -165 258 -58 55 -101
79 -395 227 -667 335 -1393 676 -2835 1335 -286 131 -687 315 -892 409 -205
94 -376 171 -380 171 -5 0 -26 -46 -46 -102z"/>
</g>
</svg>
